/* XPM */
static char *bzw6m_kes7g[] = {
/* columns rows colors chars-per-pixel */
"40 40 141 2 ",
"   c None",
".  c gray37",
"X  c gray38",
"o  c #676767",
"O  c gray44",
"+  c #727272",
"@  c gray46",
"#  c #777777",
"$  c #807C7E",
"%  c gray51",
"&  c #848484",
"*  c #868686",
"=  c #888888",
"-  c gray54",
";  c #8E8E8E",
":  c gray57",
">  c #939393",
",  c #959595",
"<  c gray59",
"1  c gray60",
"2  c #9B9B9B",
"3  c #9E9B9C",
"4  c gray61",
"5  c #9F9F9F",
"6  c #A19E9F",
"7  c gray63",
"8  c #A2A2A2",
"9  c #A5A2A4",
"0  c #A4A4A4",
"q  c #A9A6A8",
"w  c gray66",
"e  c #AAAAAA",
"r  c gray67",
"t  c #AEABAD",
"y  c gray68",
"u  c #AEAEAE",
"i  c #AFAFAF",
"p  c #B1B1B1",
"a  c gray71",
"s  c #B6B4B5",
"d  c #B7B7B7",
"f  c #BBBBBB",
"g  c #BCBCBC",
"h  c gray74",
"j  c gray75",
"k  c #C0C0C0",
"l  c #C3C1C2",
"z  c gray76",
"x  c #C3C3C3",
"c  c #C4C3C4",
"v  c gray77",
"b  c #C7C5C6",
"n  c #C6C6C6",
"m  c gray78",
"M  c #C8C6C7",
"N  c #C9C7C8",
"B  c gray79",
"V  c #CAC8C9",
"C  c #CACACA",
"Z  c #CBCACA",
"A  c #CBCBCB",
"S  c #CCCACB",
"D  c #CDCBCC",
"F  c gray80",
"G  c #CDCDCD",
"H  c #CECECE",
"J  c gray81",
"K  c #D0D0D0",
"L  c #D1D0D0",
"P  c #D3D1D2",
"I  c #D3D2D3",
"U  c LightGray",
"Y  c #D5D5D5",
"T  c #D7D7D7",
"R  c gray85",
"E  c #DADADA",
"W  c #DBDADA",
"Q  c gray86",
"!  c gainsboro",
"~  c #DDDCDC",
"^  c #DDDDDD",
"/  c gray87",
"(  c #DFDEDE",
")  c #E0DEDF",
"_  c #E1E0E0",
"`  c #E1E1E1",
"'  c #E2E1E1",
"]  c #E2E2E2",
"[  c gray89",
"{  c #E4E3E3",
"}  c #E4E4E4",
"|  c gray90",
" . c #E6E5E6",
".. c #E6E6E6",
"X. c #E7E7E7",
"o. c gray91",
"O. c #E9E9E9",
"+. c #EAE9EA",
"@. c #EAEAEA",
"#. c #EBEAEA",
"$. c #EBEAEB",
"%. c #ECECEC",
"&. c #EDECEC",
"*. c gray93",
"=. c #EEEEEE",
"-. c #EFEEEF",
";. c #EFEFEF",
":. c #F0EFEF",
">. c gray94",
",. c #F1F1F1",
"<. c gray95",
"1. c #F3F2F2",
"2. c #F3F2F3",
"3. c #F3F3F3",
"4. c #F4F4F4",
"5. c gray96",
"6. c #F6F5F6",
"7. c #F6F6F6",
"8. c #F7F6F6",
"9. c #F7F6F7",
"0. c gray97",
"q. c #F8F7F8",
"w. c #F8F8F8",
"e. c #F9F8F8",
"r. c #F9F9F9",
"t. c #FAF9F9",
"y. c #FAF9FA",
"u. c gray98",
"i. c #FBFAFB",
"p. c #FBFBFB",
"a. c #FCFBFC",
"s. c gray99",
"d. c #FDFCFC",
"f. c #FDFCFD",
"g. c #FDFDFD",
"h. c #FEFDFD",
"j. c #FEFDFE",
"k. c #FEFEFE",
"l. c #FFFEFE",
"z. c #FFFEFF",
"x. c white",
/* pixels */
"  2 g y @                                                                       ",
"    & w m G 8                                                                   ",
"          o f Q +                                                               ",
".             O E i                                                             ",
"B G C K G 4       U g                                                           ",
"        ; C ! s     R 0                                                         ",
"              S ~     ^                                                         ",
"                V r.=.t.7.3./                                                   ",
"            f e.g.0.q.s.w.0.w.*.                                                ",
"          =.s.a.5.  6 s.7.3.o.@.a                                               ",
"      # w.u.7.8.0.P %.a.u.,.&.3.A                                               ",
"      @.u.5.0.r.p.k.k.g.d.u.r.r.-                                               ",
"      r.p.u.s.g.k.k.k.f.h.s.s.w.H j                                             ",
"      / k.k.k.k.k.k.k.k.g.k.k.g.p.p.%.X                                         ",
"        v <.g.k.k.k.g.7.L 9.g.r.0.4.%.X.                                        ",
"              @ , & o     r.a.p.7.-.P _ c                                       ",
"                        U 7.p.y.u.-.( s +.                                      ",
"                      r g.r.h.u.p.6.' M #.3                                     ",
"                      J k.g.g.g.a.s.&.W ..l   #                                 ",
"                      ;.g.r.k.x.k.k.g.:.-.I b w.    r d                         ",
"                      g.O.  3.E ~ x.x.k.s.r.s.p.  % g.3.                        ",
"                    B k.e         $  .k.k.a.2.O.G 7.;.3.                        ",
"                    7.r.      v 7.+   s.u.d.:.h 7.4.u.s.3.O.a                   ",
"                  = k.B       a g.r...r.k.k.p.3.s.k.s.s.u.u.7.=.w               ",
"                  X.u.        + s.w.s.7.k.x.k.k.g.s.p.p.w.5.<.;.,.Y             ",
"                  k.C           g.n . g.k.k.x.k.k.k.s.r.0.>.[ T ` =.T           ",
"                T w.            s.[   [ g.n x.x.g.k.k.s.r.%.J z x U O.R         ",
"                s.g             w.[   4 x.k.x.l.g.k.k.g.k.i.%.D t 9 Z +.N       ",
"              Y <.              0...    7.x.g.k.g.k.k.h.k.k.k.p.$.N q N 1.9     ",
"              0.5               4.|     4 R a k.k.j.z.k.k.k.k.k.k.g.7.{ { ;.    ",
"            U [                 ,.`           u.j.k.x.x.l.k.k.k.g.k.k.k.s.q.)   ",
"          . @.                  >.]           : g.x.x.x.x.k.x.k.k.k.g.g.g.s.p.8 ",
"          B 7                   >.E             7.4.;.g.x.x.x.x.x.x.x.k.k.g.g.4.",
"          1                     ;.A             =.|     @ o.o.} O.=.;.;.;.=.*.o.",
"                                *.p             x 0.        %                   ",
"                                X.-               0.*                           ",
"                                ! X               [ F                           ",
"                                k                 * X.                          ",
"                                >                   A <                         ",
"                                                    o u                         "
};
