/* XPM */
static char *bmsds_ymr10[] = {
/* columns rows colors chars-per-pixel */
"30 30 114 2 ",
"   c None",
".  c gray38",
"X  c #797979",
"o  c #808080",
"O  c gray51",
"+  c #858384",
"@  c gray56",
"#  c gray57",
"$  c gray59",
"%  c gray62",
"&  c #A19FA0",
"*  c gray63",
"=  c #A7A7A7",
"-  c gray66",
";  c #AAAAAA",
":  c #ACACAC",
">  c gray69",
",  c #B1B1B1",
"<  c #B2B2B2",
"1  c #B4B2B3",
"2  c #B4B4B4",
"3  c #B6B6B6",
"4  c #B8B6B7",
"5  c gray72",
"6  c #B9B9B9",
"7  c #BAB8B9",
"8  c #BBB9BA",
"9  c #BBBBBB",
"0  c #BCBCBC",
"q  c gray74",
"w  c gray75",
"e  c #C0C0C0",
"r  c gray76",
"t  c #C4C2C3",
"y  c #C5C2C3",
"u  c #C6C6C6",
"i  c gray78",
"p  c #C9C7C8",
"a  c #C9C8C9",
"s  c #CBC9CA",
"d  c #CACACA",
"f  c #CBCBCB",
"g  c #CDCBCC",
"h  c gray80",
"j  c #CDCDCD",
"k  c #CFCDCE",
"l  c #D0CECF",
"z  c #D0D0D0",
"x  c #D1D0D0",
"c  c gray82",
"v  c LightGray",
"b  c gray83",
"n  c #D5D4D4",
"m  c #D5D5D5",
"M  c #D8D8D8",
"N  c gray85",
"B  c #DAD8D9",
"V  c #DAD9DA",
"C  c #DBD9DA",
"Z  c #DADADA",
"A  c #DBDADA",
"S  c gray86",
"D  c #DDDDDD",
"F  c #DEDDDD",
"G  c gray87",
"H  c #E1E0E0",
"J  c #E1E1E1",
"K  c #E2E2E2",
"L  c #E4E3E3",
"P  c #E4E4E4",
"I  c #E6E6E6",
"U  c #E7E7E7",
"Y  c #E8E7E8",
"T  c gray91",
"R  c #E9E8E8",
"E  c #E9E9E9",
"W  c #EAEAEA",
"Q  c #EBEAEA",
"!  c #EBEAEB",
"~  c gray92",
"^  c #ECECEC",
"/  c gray93",
"(  c #EEEDED",
")  c #EEEEEE",
"_  c #EFEEEF",
"`  c #EFEFEF",
"'  c #F0EFEF",
"]  c gray94",
"[  c #F1F1F1",
"{  c gray95",
"}  c #F3F2F2",
"|  c #F3F2F3",
" . c #F3F3F3",
".. c #F4F4F4",
"X. c gray96",
"o. c #F6F6F6",
"O. c gray97",
"+. c #F8F7F8",
"@. c #F8F8F8",
"#. c #F9F9F9",
"$. c #FAF9FA",
"%. c gray98",
"&. c #FBFBFB",
"*. c #FCFBFB",
"=. c #FCFBFC",
"-. c gray99",
";. c #FDFCFC",
":. c #FCFDFD",
">. c #FDFDFD",
",. c #FEFDFD",
"<. c #FEFDFE",
"1. c #FEFEFE",
"2. c #FFFEFF",
"3. c white",
/* pixels */
"  $ 2 %                                                     ",
"    o 0 : 5                                                 ",
"            9 ,                                             ",
"u h f f >     z q                                           ",
"        r a s   v                                           ",
"            y ) ( X.[ h                                     ",
"          G %.O.| %.O...                                    ",
"        X.#.@.l B $.{ Q Z                                   ",
"      ~ O.O.#.@.-.;.@.o.h                                   ",
"      #.%.-.1.1.1.,.-.&.K d                                 ",
"      E #.1.1.1.>.o.%.>.%.@.N                               ",
"            w 6 <   O.=.@._ F x                             ",
"                  j ..&.%.` x C                             ",
"                  ^ &.;.&.+.A H 1                           ",
"                  O.-.1.1.>.} W k p     *                   ",
"                   .  ` G @.>.-.@.#.  % X.                  ",
"                ) Z       + ] >.*.Y G ......                ",
"              O O.      / Z ^ -.>./ { &.-.%...T 3           ",
"              J o.      D O.O.&.3.1.>.-.&.#.X.] ^ v         ",
"              %.<       >.c i -.{ 3.1.1.-.@.^ b m T Z       ",
"            ] P         #.I   ` / 3.,.1.1.:.| n 4 7 L g     ",
"            W           O.U   ) >.-.>.1.1.1.1.%.! t 8 R &   ",
"            c            .I     f v 1.<.2.1.1.1.1.;...~ '   ",
"          P             ] P         [ 3.3.3.1.1.1.1.>.>.#.V ",
"        e ;             ] D         [ X.@.&.1.1.1.1.1.>.-.o.",
"        @               ) d         P T   . G M K W W ~ W U ",
"                        W =           ]                     ",
"                        D X           P 0                   ",
"                        5             # S                   ",
"                                        -                   "
};
