/* XPM */
static char *bl77h_x6taj[] = {
/* columns rows colors chars-per-pixel */
"10 10 4 1 ",
"  c None",
". c #F9F9F9",
"X c #FEFEFE",
"o c white",
/* pixels */
" o        ",
"oooo      ",
" o.oo     ",
" ooooo    ",
"   oXo    ",
"  oooXo   ",
" oo oXXXX ",
" o   oXXXo",
" o    ooo ",
"      o   "
};
