/* XPM */
static char *bvwqf_bs9yf[] = {
/* columns rows colors chars-per-pixel */
"20 20 61 1 ",
"  c None",
". c #A4A4A4",
"X c gray65",
"o c #ABA8AA",
"O c #AAAAAA",
"+ c #AFAFAF",
"@ c #B4B4B4",
"# c #BBBBBB",
"$ c gray75",
"% c #C1C1C1",
"& c gray77",
"* c #C4C5C4",
"= c #CDCDCD",
"- c #CECECE",
"; c gray81",
": c #D0D0D0",
"> c #D1D0D0",
", c #D6D5D5",
"< c gray84",
"1 c #D7D7D7",
"2 c #D8D7D8",
"3 c #D8D8D8",
"4 c gray85",
"5 c gray86",
"6 c gray87",
"7 c #DFDEDE",
"8 c #E5E6E5",
"9 c #E6E6E6",
"0 c #E8E7E7",
"q c #E9E7E8",
"w c gray91",
"e c #E9E8E9",
"r c #E9E9E9",
"t c #EBEAEB",
"y c #ECECEC",
"u c #EDECEC",
"i c #EFEFEF",
"p c #F0EFEF",
"a c gray94",
"s c #F1F1F1",
"d c #F2F1F1",
"f c #F2F1F2",
"g c #F3F3F3",
"h c #F4F4F4",
"j c gray96",
"k c #F6F5F5",
"l c #F6F6F6",
"z c #F6F7F6",
"x c gray97",
"c c #F8F8F8",
"v c #F9F9F9",
"b c gray98",
"n c #FBFBFB",
"m c #FCFBFC",
"M c gray99",
"N c #FDFDFD",
"B c #FEFDFE",
"V c #FEFEFE",
"C c #FFFEFE",
"Z c #FEFFFF",
"A c white",
/* pixels */
" X+                 ",
"   %X               ",
"-=@  &              ",
"    ,               ",
"   2Vqxj            ",
"  Vkfxbp$           ",
"  MNVVVM1           ",
"  ;njg>Nlr          ",
"      4nb7t         ",
"      ANmu9         ",
"      ws7AMM g      ",
"     j  g bdsvj$    ",
"     N  ANVVNnvha   ",
"    6   n NNNVb<*8  ",
"    c   x nANVVNeo0 ",
"   3    s   BACVVZcq",
"   @    i   zgAAAAAA",
"        y   :  O    ",
"        6    #      ",
"        .    5      "
};
